# xmcd
#
# Track frame offsets: 
#        150
#        21768
#        42263
#        56438
#        67417
#        80536
#        106259
#        121333
#        138190
#        155256
#        166885
#        187151
#        198706
#
# Disc length: 2811 seconds
#
# Revision: 3
# Processed by: cddbd v1.5.2PL0 Copyright (c) Steve Scherf et al.
# Submitted via: ExactAudioCopy v0.99pb4
#
DISCID=b40af90d
DTITLE=Townes Van Zandt - Live at the Old Quarter [disc 2]
DYEAR=1973
DGENRE=Country
TTITLE0=For the Sake of the Song
TTITLE1=Chauffeur's Blues
TTITLE2=No Place to Fall
TTITLE3=Loretta
TTITLE4=Kathleen
TTITLE5=Why She's Acting This Way
TTITLE6=Cocaine Blues
TTITLE7=Who Do You Love
TTITLE8=Tower Song
TTITLE9=Waiting 'Round to Die
TTITLE10=Tecumseh Valley
TTITLE11=Lungs
TTITLE12=Only Him or Me
EXTD=
EXTT0=
EXTT1=
EXTT2=
EXTT3=
EXTT4=
EXTT5=
EXTT6=
EXTT7=
EXTT8=
EXTT9=
EXTT10=
EXTT11=
EXTT12=
PLAYORDER=
